<svg width="989" height="191" viewBox="0 0 989 191" fill="none" xmlns="http://www.w3.org/2000/svg">
<path d="M10.1766 118.717L10 179.877L59.6606 126.242L166.801 10.4514L107.028 10.2788" fill="url(#paint0_linear_3_55)"/>
<path d="M107.482 174.607L166.806 174.778L90.7116 90.088L60.1482 123.166" fill="url(#paint1_linear_3_55)"/>
<path d="M9 70.2864L9.159 15.2348C9.16571 12.9113 11.045 11.0054 13.406 11.0122L59.5759 11.1456" fill="white"/>
<path d="M213.874 153.774L187.904 153.699L136.168 95.4619L186.629 37.1452L210.876 37.2153L160.302 95.5316L160.377 95.5319L213.874 153.774Z" fill="white"/>
<path d="M724.28 39.105L724.236 54.4325L695.305 54.3489L695.221 83.2426L679.894 83.1983L679.977 54.3047L651.083 54.2212L651.128 38.8937L680.021 38.9771L680.105 10.0834L695.432 10.1277L695.349 39.0214L724.28 39.105Z" fill="url(#paint2_linear_3_55)"/>
<path d="M291.757 65.8152L310.046 65.868L309.799 151.125L291.511 151.072L291.548 138.33C284.286 148.391 273.026 154.392 259.797 154.353C234.801 154.281 217.056 134.93 217.133 108.247C217.21 81.5646 235.067 62.3161 260.063 62.3883C273.329 62.4266 284.554 68.4927 291.721 78.5944L291.757 65.8152ZM291.485 108.425C291.534 91.1483 279.841 78.5226 263.539 78.4755C247.237 78.4284 235.321 90.9859 235.271 108.262C235.222 125.389 247.102 138.165 263.367 138.212C279.631 138.259 291.435 125.701 291.485 108.425Z" fill="white"/>
<path d="M326.685 65.916L344.298 65.9669L344.27 75.7106C349.653 67.5189 358.586 62.6729 368.817 62.7024C381.896 62.7402 393.12 69.1435 398.151 78.9018C404.063 69.1751 414.799 63.0226 427.053 63.058C447.028 63.1157 461.075 78.4089 461.012 100.07L460.863 151.599L442.725 151.546L442.87 101.554C442.907 88.6249 434.726 79.3822 423.147 79.0114C411.23 78.977 402.659 88.3587 402.621 101.438L402.476 151.43L384.338 151.378L384.483 101.385C384.521 87.9691 376.828 78.8777 365.098 78.8438C353.031 78.8089 344.947 87.8548 344.908 101.271L344.764 151.264L326.476 151.211L326.722 65.9162L326.685 65.916Z" fill="white"/>
<path d="M494.387 27.8002L494.242 77.98C501.502 68.5945 512.423 63.1171 525.165 63.1539C550.011 63.2257 567.906 82.5775 567.829 109.26C567.752 135.943 549.558 155.19 524.899 155.119C511.821 155.081 500.744 149.353 493.576 139.776L493.542 151.693L475.741 151.642L476.099 27.8223L494.387 27.8751L494.387 27.8002ZM521.593 80.2326C505.329 80.1857 493.526 92.2188 493.478 109.008C493.429 125.797 505.124 137.898 521.426 137.945C537.541 137.992 549.642 126.109 549.691 109.17C549.74 92.3812 537.895 80.2797 521.593 80.2326Z" fill="white"/>
<path d="M650.999 66.8527L669.287 66.9055L669.041 152.163L650.753 152.11L650.789 139.368C643.527 149.428 632.267 155.429 619.038 155.391C594.042 155.319 576.297 135.967 576.374 109.285C576.451 82.6021 594.308 63.3536 619.304 63.4258C632.57 63.4641 643.796 69.5302 650.962 79.6319L650.999 66.8527ZM650.726 109.462C650.776 92.1858 639.082 79.5601 622.78 79.513C606.478 79.4659 594.562 92.0234 594.512 109.3C594.463 126.426 606.343 139.202 622.608 139.249C638.872 139.296 650.676 126.738 650.726 109.462Z" fill="white"/>
<defs>
<linearGradient id="paint0_linear_3_55" x1="0.716969" y1="160.577" x2="105.733" y2="44.7639" gradientUnits="userSpaceOnUse">
<stop stop-color="#6215FF"/>
<stop offset="0.0948408" stop-color="#4F29FF"/>
<stop offset="0.3686" stop-color="#1D5EFD"/>
<stop offset="0.5021" stop-color="#0A73FD"/>
</linearGradient>
<linearGradient id="paint1_linear_3_55" x1="59.9265" y1="92.5678" x2="124.272" y2="157.896" gradientUnits="userSpaceOnUse">
<stop stop-color="#6215FF"/>
<stop offset="0.074459" stop-color="#4F29FF"/>
<stop offset="0.2894" stop-color="#1D5EFD"/>
<stop offset="0.3942" stop-color="#0A73FD"/>
</linearGradient>
<linearGradient id="paint2_linear_3_55" x1="719.445" y1="65.689" x2="656.87" y2="28.2138" gradientUnits="userSpaceOnUse">
<stop stop-color="#6215FF"/>
<stop offset="0.5446" stop-color="#0A73FD"/>
</linearGradient>
</defs>
</svg>
